<?xml version="1.0" encoding="UTF-8"?> <svg xmlns="http://www.w3.org/2000/svg" width="350" height="136" viewBox="0 0 350 136" fill="none"> <path d="M143.782 98.7083C143.668 97.9976 143.042 97.5504 142.321 97.5454C129.896 97.5206 130.885 74.1524 116.06 72.5223C120.437 71.3147 125.425 65.331 127.552 58.8305C130.92 60.1425 134.909 60.1376 137.488 58.8603C140.116 57.7172 142.316 54.7801 139.49 53.9203C137.935 53.7712 135.694 53.6569 132.847 51.0974C135.649 48.6324 137.84 48.5281 139.38 48.379C142.202 47.5142 140.006 44.582 137.378 43.439C135.654 42.6388 132.326 41.7542 127.631 43.4042C122.996 29.5881 113.1 27.8089 104.709 28.5593C103.626 12.5764 79.5306 14.1766 79.5306 1.18056C75.899 -4.67886 65.6103 12.3478 86.8535 28.5593H80.3404C69.54 21.6562 74.1702 21.4425 63.4392 28.5593H57.259C78.5122 12.3478 68.2036 -4.67886 64.5769 1.18056C64.5868 14.1568 40.4622 12.6012 39.399 28.5593C30.1833 28.1816 20.441 28.1319 15.1203 42.8028C11.0068 41.6448 8.06571 42.45 6.47594 43.1855C3.84786 44.3286 1.652 47.2657 4.47383 48.1255C5.90462 48.2647 7.85209 48.3591 10.4056 50.3371C7.24102 53.6271 4.68746 53.7514 2.99336 53.9154C0.17153 54.7801 2.36739 57.7123 4.99547 58.8553C8.12036 60.3165 12.214 60.1028 16.1835 58.3186C18.3346 64.8688 23.397 71.1407 27.898 72.3086C12.8002 73.9089 14.072 97.441 1.31914 97.3714C-1.50269 98.2362 0.693171 101.168 3.32125 102.311C10.346 104.632 15.0656 102.933 23.9932 95.0853C29.3437 114.418 59.3506 132.12 71.4775 135.609C74.5428 136.156 108.489 122.365 120.204 95.6221C128.083 103.539 140.757 107.167 143.782 98.7083ZM138.074 55.943C135.659 57.8912 132.554 58.1993 128.525 56.8823C129.474 55.118 130.428 53.7315 131.362 52.6331C134.005 55.0683 136.444 55.7144 138.074 55.943ZM127.586 45.735C131.422 44.1397 135.54 44.2242 137.964 46.3612C122.901 48.9107 126.339 73.4915 108.454 71.588C107.883 68.4521 107.908 65.1223 108.221 61.8521C114.764 57.5682 120.03 48.1702 127.586 45.735ZM108.539 59.1038C109.165 54.4272 110.258 49.6711 111.336 45.6605C112.921 47.5838 114.704 49.5916 116.264 51.1074C113.81 53.2593 111.311 57.1258 108.539 59.1038ZM124.601 41.8039C124.943 42.6686 125.291 43.4688 125.644 44.2291C123.314 45.3275 120.706 47.0421 117.834 49.6214C115.976 47.9068 113.919 45.243 112.012 43.2253C113.775 35.4773 115.812 36.0588 114.158 31.2877C117.794 32.3712 121.958 35.1393 124.601 41.8039ZM75.9686 5.86216C76.3014 4.25194 76.9721 3.18839 77.5087 2.59698C78.4228 15.4837 101.216 14.4848 102.587 28.5593H90.1125C78.6364 20.0609 74.2546 8.72974 75.9686 5.86216ZM100.113 66.7673C100.168 76.3889 103.476 87.069 109.855 94.151C110.144 94.4641 110.203 94.9064 110.004 95.2742C103.208 107.833 90.6838 116.664 81.801 121.699C81.3638 119.711 80.5491 115.765 79.6847 110.477C94.4248 109.533 105.861 94.9561 98.4836 81.1102C93.6199 74.0481 87.862 72.8205 76.52 69.2472C76.6492 63.691 77.0417 58.4677 77.5633 53.7613C84.7272 62.5578 74.8557 62.1901 89.2829 62.0112C90.1125 62.0012 91.8464 62.0162 92.6661 62.0112C93.5504 61.9168 95.7413 62.4386 95.7413 60.9675C96.3474 53.4134 89.0245 42.8575 79.3319 41.4709C79.6201 39.8657 79.8983 38.4095 80.1665 37.1173C87.4894 37.1173 97.8179 37.1173 105.031 37.1173C102.523 45.5312 100.272 56.435 100.113 66.7673ZM68.8494 81.4034C68.9537 75.6037 69.0233 70.3654 68.8494 66.2653H68.8593C68.6706 61.2508 68.3079 56.5692 67.8657 52.3399C69.8231 51.7386 73.5442 51.5547 75.5314 52.4989C74.97 57.3644 74.5328 62.8113 74.3738 68.621C74.354 68.6161 74.3391 68.6111 74.3192 68.6061C74.0758 79.1273 74.8458 90.195 76.0033 99.8961C73.3455 100.597 69.8877 100.676 67.4286 99.7023C68.0694 94.151 68.596 87.8642 68.8494 81.4034ZM75.7997 50.2824C62.5301 46.1425 53.9404 61.0371 66.9318 68.1489C67.0112 70.9519 66.9318 75.375 66.8622 77.9096C57.5372 75.0967 51.5905 73.5263 48.5402 65.8628C46.5082 59.4219 49.0022 52.4393 54.4273 48.5231C66.9069 38.2554 92.7654 41.8784 93.5355 59.8543C90.9422 59.8543 85.3333 59.8543 82.6853 59.8543C82.432 56.4002 79.9976 51.5447 75.7997 50.2824ZM66.6784 65.5646C62.9623 63.0747 60.2597 57.0762 65.7941 53.2245C66.1766 57.0115 66.4946 61.1514 66.6784 65.5646ZM67.1752 101.884C82.9884 107.087 95.6221 86.3385 76.6989 80.3697C76.4554 77.4773 76.3511 74.3165 76.4207 71.4588C86.7293 74.7041 91.588 75.877 96.1238 81.4084C100.684 88.4158 98.5979 98.4698 91.9706 103.574C84.4589 109.319 73.1716 109.314 64.1099 108.454C51.5011 107.679 45.4351 98.7431 45.5941 89.5142H59.4946C59.8126 96.0047 62.1923 100.15 67.1752 101.884ZM76.6989 82.6359C85.8897 84.6636 86.0785 96.0246 78.0899 99.1755C77.4888 94.1212 76.9771 88.5252 76.6989 82.6359ZM65.9332 110.81C69.6791 111.098 73.5492 111.128 77.5434 110.735C78.5221 116.734 79.4412 121.038 79.8387 122.792C79.7343 122.842 72.2475 126.346 72.1432 126.395L63.8118 122.549C64.1745 120.834 65.024 116.634 65.9332 110.81ZM67.2497 28.5643L71.8054 25.4432C73.6535 26.7553 77.7173 29.2302 79.3915 30.7311C78.6364 33.887 77.7422 37.9225 77.1957 41.1081C73.9317 40.6807 69.6244 40.7205 66.3853 41.1727C65.9829 38.3747 64.8203 32.8334 64.3335 30.5572L67.2497 28.5643ZM63.4989 37.1124C63.7423 38.4244 64.0006 39.9005 64.2639 41.5405C49.5139 44.0105 38.2862 61.8969 51.3123 73.4716C54.5415 76.1106 59.7232 78.337 66.733 80.1063C66.5194 86.6565 66.0077 92.9284 65.3867 98.5592C54.6309 85.7222 73.107 87.3523 44.5111 87.3523C42.1612 87.3921 43.0406 99.8017 50.6665 105.929C53.8857 108.38 58.1483 109.905 63.7771 110.591C62.9722 115.745 62.2171 119.592 61.8147 121.525C52.6437 116.113 36.8703 106.372 33.7951 93.654C47.2683 78.5806 43.3635 53.8308 37.3969 37.1124C45.1917 37.1124 55.6245 37.1124 63.4989 37.1124ZM52.4649 16.0801C64.3384 11.3637 66.1766 5.6087 66.5939 2.60196C71.239 8.77944 66.8771 17.8345 53.995 28.5643H41.5154C42.1264 24.5586 44.5359 19.226 52.4649 16.0801ZM17.8775 41.8039C20.5553 35.0499 24.8129 32.3016 28.4942 31.2579C26.7852 36.1184 28.8519 35.4375 30.8093 42.8923C28.991 44.6615 27.1628 47.1763 25.419 48.8461C22.3537 46.1823 19.5865 44.5075 17.1622 43.5135C17.4056 42.9668 17.644 42.4003 17.8775 41.8039ZM31.5545 45.2132C32.7717 49.1543 34.0385 53.8656 34.8135 58.4578C32.101 56.2462 29.4977 52.4045 27.0187 50.2923C28.4793 48.8461 30.074 46.888 31.5545 45.2132ZM7.6633 57.4837C6.05366 57.1507 4.99051 56.4798 4.40428 55.943C6.20767 55.6945 8.9997 54.9292 11.9656 51.7932C13.0238 52.9264 14.1118 54.4173 15.1998 56.3953C11.8513 57.8365 9.31268 57.8216 7.6633 57.4837ZM19.363 60.2469C17.1522 54.1986 12.1941 46.6743 5.88972 46.1078C11.7371 41.7989 19.3133 46.2171 24.6986 51.0676C28.1266 53.8358 31.2912 59.1436 35.2408 61.3601C35.6581 64.8241 35.7227 67.96 35.1265 71.3495C31.4104 71.5681 23.5013 70.6786 19.363 60.2469ZM24.6887 91.3133C13.7044 102.068 8.64697 102.818 2.73006 99.3991C17.3708 98.0126 14.5043 69.6995 34.3465 74.7538C32.7518 80.6927 29.1251 86.3583 24.6887 91.3133ZM117.844 95.9352C109.995 114.03 84.3298 129.889 72.6301 133.492C70.7671 133.671 62.9623 130.272 51.7097 123.349C42.7027 117.519 30.9683 107.878 26.2089 95.0157C25.3594 91.6661 30.5957 88.6842 31.7731 85.6129C35.4296 79.818 37.69 73.1784 37.7198 66.3448C37.6552 58.3832 35.201 49.5469 32.9555 42.5146C31.4502 36.4017 27.0386 31.9935 33.1939 30.7162C42.1662 30.7112 53.1803 30.7212 62.1625 30.7162C62.3165 31.3424 62.6543 32.7986 63.0865 34.9555C57.6763 35.0151 48.6594 34.9108 43.3287 34.9555C42.2755 34.9505 40.9093 34.9604 39.8561 34.9555C38.8028 35.1443 36.0853 34.4535 35.4544 35.7854C34.5055 37.5895 36.3437 39.6619 36.602 41.6399C38.0775 46.6395 39.9107 54.3129 40.641 61.2409C41.9228 71.9757 39.1804 83.9678 32.1854 92.2327C31.475 112.35 73.4895 129.496 71.6712 128.696C73.1517 129.064 76.1226 126.942 81.7116 124.278C86.3021 122.265 114.804 103.181 111.455 92.6998C108.872 89.9068 106.606 85.9558 105.161 82.0942C99.9492 69.9728 103.094 53.0307 105.965 41.6846C106.164 39.6768 107.898 37.5547 106.944 35.7656C106.1 34.5231 104.217 35.0797 102.955 34.9605C101.936 34.9406 100.193 34.9754 99.1593 34.9605C94.5688 34.8909 85.3283 35.0102 80.6186 34.9605C81.0956 32.8036 81.4682 31.3424 81.6321 30.7212C87.6931 30.7063 97.3758 30.7311 103.481 30.7212C104.699 30.6566 107.193 30.7709 108.44 30.7212C109.761 30.6317 111.286 30.8454 112.071 32.0084C113.552 35.2139 111.684 35.3183 110.223 41.6896C107.327 52.1858 103.799 65.2266 107.406 76.3541C108.986 81.3686 111.525 85.747 114.61 89.5987C115.951 91.686 119.111 93.172 117.844 95.9352ZM137.83 101.124C130.185 104.25 111.823 87.3026 109.264 75.0868C111.515 73.7648 122.052 72.3335 127.616 85.4488C132.331 97.3317 138.084 99.1705 141.089 99.588C140.503 100.12 139.445 100.791 137.83 101.124Z" fill="white"></path> <path d="M17.2075 49.7815C17.3872 49.5254 17.2579 49.1249 16.9188 48.8868C16.5797 48.6488 16.1592 48.6634 15.9795 48.9195C15.7999 49.1756 15.9292 49.5761 16.2683 49.8142C16.6074 50.0522 17.0279 50.0376 17.2075 49.7815Z" fill="white"></path> <path d="M16.7642 51.055C16.3717 51.055 15.9743 50.9258 15.6414 50.6923C15.2837 50.4439 15.0204 50.0912 14.8962 49.6987C14.7372 49.2069 14.8068 48.6952 15.09 48.2927C15.3731 47.8903 15.8302 47.6519 16.3469 47.632C16.7542 47.6221 17.1815 47.7463 17.5342 47.9947C17.887 48.2431 18.1552 48.5958 18.2794 48.9883C18.4384 49.4801 18.3688 49.9918 18.0857 50.3942C17.8025 50.7966 17.3454 51.0351 16.8288 51.055C16.8039 51.055 16.7841 51.055 16.7642 51.055ZM16.3171 49.1572C16.2127 49.3062 16.178 49.5 16.2227 49.654C16.2425 49.7136 16.2723 49.7534 16.2922 49.7683C16.3121 49.7832 16.3568 49.7981 16.4214 49.7931C16.5804 49.7881 16.7493 49.6888 16.8536 49.5348C16.9579 49.3857 16.9977 49.192 16.948 49.0379C16.9281 48.9783 16.8983 48.9386 16.8784 48.9237C16.8586 48.9088 16.8089 48.8939 16.7493 48.8989C16.5903 48.9038 16.4214 49.0032 16.3171 49.1572Z" fill="white"></path> <path d="M63.7524 13.9114C63.9935 13.5745 63.9828 13.1537 63.7285 12.9716C63.4742 12.7895 63.0726 12.915 62.8315 13.2519C62.5904 13.5888 62.6011 14.0096 62.8554 14.1917C63.1097 14.3738 63.5113 14.2483 63.7524 13.9114Z" fill="white"></path> <path d="M63.1363 15.3523C62.8183 15.3523 62.5054 15.2579 62.2321 15.0641C61.8993 14.8256 61.6757 14.463 61.6061 14.0407C61.5267 13.5588 61.6558 13.0421 61.9589 12.6198C62.555 11.7852 63.6132 11.5517 64.3634 12.0932C65.1136 12.6298 65.2328 13.7078 64.6366 14.5375C64.2591 15.0641 63.6927 15.3523 63.1363 15.3523ZM63.1313 13.1912C63.0121 13.1912 62.9127 13.2309 62.878 13.2806C62.8134 13.37 62.8482 13.6631 63.1015 13.8469C63.3549 14.0307 63.643 13.9711 63.7076 13.8767C63.7275 13.8469 63.7424 13.7774 63.7275 13.6929C63.7027 13.5489 63.6132 13.4098 63.4791 13.3154C63.3698 13.221 63.2406 13.1912 63.1313 13.1912Z" fill="white"></path> <path d="M14.8321 96.2919C15.125 95.9989 15.1832 95.582 14.9621 95.3608C14.7409 95.1396 14.3242 95.1978 14.0313 95.4908C13.7384 95.7838 13.6802 96.2007 13.9014 96.4219C14.1225 96.6431 14.5392 96.5849 14.8321 96.2919Z" fill="white"></path> <path d="M14.2502 97.6388C13.8229 97.6388 13.4304 97.4799 13.1373 97.1867C12.7896 96.839 12.6306 96.3472 12.7051 95.8355C12.7597 95.4281 12.9634 95.0356 13.2665 94.7276C13.9918 94.0023 15.0699 93.9476 15.7257 94.5984C16.0734 94.9462 16.2324 95.438 16.1628 95.9497C16.1082 96.3571 15.9045 96.7496 15.5965 97.0576C15.2288 97.4252 14.737 97.6388 14.2502 97.6388ZM14.2502 95.4777C14.1558 95.4777 14.0961 95.5076 14.0713 95.5324C14.0564 95.5473 14.0316 95.592 14.0216 95.6516C14.0017 95.8106 14.0713 95.9944 14.2005 96.1236C14.4191 96.3422 14.7122 96.3322 14.7917 96.2527C14.8115 96.2329 14.8314 96.1931 14.8413 96.1285C14.8612 95.9696 14.7917 95.7858 14.6625 95.6566C14.5532 95.5473 14.3942 95.4777 14.2502 95.4777Z" fill="white"></path> <path d="M23.089 59.3244C22.8456 59.3244 22.5922 59.2896 22.3438 59.2151C21.6831 59.0213 21.072 58.5841 20.6299 57.983C20.1827 57.3819 19.9443 56.6715 19.9492 55.9809C19.9592 55.191 20.292 54.4905 20.8783 54.0583C22.0209 53.2088 23.7001 53.6062 24.7036 54.9575C25.7072 56.3088 25.5979 58.0327 24.4552 58.8773C24.0628 59.1754 23.5858 59.3244 23.089 59.3244ZM22.2345 55.7772C22.1997 55.7772 22.1749 55.7822 22.16 55.7921C22.1401 55.807 22.1054 55.8766 22.1054 56.0008C22.1054 56.2194 22.1948 56.4727 22.3587 56.6913C22.5227 56.9149 22.7363 57.0739 22.9499 57.1385C23.0691 57.1732 23.1437 57.1633 23.1635 57.1484C23.2381 57.0937 23.2877 56.6814 22.9648 56.2442C22.7015 55.8915 22.3836 55.7772 22.2345 55.7772Z" fill="white"></path> <path d="M56.1167 22.191C55.297 22.191 54.5418 21.8433 54.0898 21.1726C53.2899 19.9952 53.7569 18.3359 55.1479 17.387C56.539 16.443 58.2579 16.6219 59.0578 17.7993C59.8576 18.9767 59.3906 20.636 57.9996 21.5849C57.3985 21.9923 56.7377 22.191 56.1167 22.191ZM57.0308 18.9469C56.8619 18.9469 56.6185 19.0016 56.3601 19.1754C55.9081 19.4835 55.8186 19.8859 55.8733 19.9604C55.9279 20.0399 56.3353 20.1045 56.7824 19.7964C57.2345 19.4884 57.3239 19.086 57.2693 19.0115C57.2494 18.9767 57.16 18.9469 57.0308 18.9469Z" fill="white"></path> <path d="M24.1718 43.4463C23.4366 43.4463 22.7709 43.1532 22.3337 42.6266C21.8667 42.0702 21.7027 41.31 21.8816 40.54C22.0356 39.8693 22.438 39.2334 23.0093 38.7565C24.301 37.6784 26.0249 37.6834 26.939 38.7764C27.4011 39.3328 27.57 40.0929 27.3911 40.8629C27.2371 41.5336 26.8347 42.1695 26.2584 42.6464C25.6871 43.1234 24.9916 43.4066 24.301 43.4413C24.2613 43.4463 24.2166 43.4463 24.1718 43.4463ZM25.1108 40.1177C24.9419 40.1177 24.6686 40.1873 24.3954 40.4158C24.1818 40.5947 24.0327 40.8182 23.9831 41.0318C23.9533 41.1511 23.9731 41.2305 23.988 41.2455C24.0029 41.2653 24.0725 41.2951 24.2017 41.2902C24.4202 41.2802 24.6686 41.1709 24.8773 40.9971C25.086 40.8232 25.24 40.5946 25.2896 40.381C25.3195 40.2618 25.2996 40.1823 25.2847 40.1624C25.2648 40.1376 25.2002 40.1177 25.1108 40.1177Z" fill="white"></path> <path d="M20.7141 90.466C20.1576 90.466 19.6261 90.2872 19.1939 89.9096C18.6474 89.4327 18.3642 88.7123 18.4188 87.9224C18.4636 87.2368 18.7616 86.5463 19.2535 85.9799C19.7453 85.4136 20.3862 85.026 21.0569 84.8869C21.8319 84.723 22.587 84.9019 23.1335 85.3788C23.68 85.8557 23.9631 86.5761 23.9085 87.366C23.8638 88.0516 23.5657 88.7421 23.0788 89.3085C22.4131 90.0636 21.5388 90.466 20.7141 90.466ZM21.6133 86.9835C21.5835 86.9835 21.5437 86.9884 21.499 86.9984C21.2854 87.0431 21.0569 87.1872 20.878 87.3958C20.6992 87.6045 20.5849 87.8479 20.57 88.0665C20.5601 88.1907 20.5899 88.2602 20.6097 88.2801C20.6793 88.3397 21.0916 88.3 21.4493 87.8876C21.6282 87.679 21.7424 87.4355 21.7573 87.2169C21.7673 87.0927 21.7375 87.0232 21.7176 87.0033C21.7027 86.9934 21.6679 86.9835 21.6133 86.9835Z" fill="white"></path> <path d="M30.0942 67.0383C29.3887 67.0383 28.6286 66.8048 27.9579 66.3725C26.3831 65.369 25.7471 63.6451 26.5073 62.4478C27.2723 61.2505 29.1055 61.0965 30.6804 62.1001C31.361 62.5323 31.8976 63.1284 32.1956 63.7743C32.5583 64.5692 32.5335 65.3889 32.131 66.0248C31.7237 66.6607 30.9934 67.0333 30.119 67.0383C30.1091 67.0383 30.1041 67.0383 30.0942 67.0383ZM28.3405 63.6153C28.3603 63.7842 28.5739 64.2115 29.1155 64.5543C29.657 64.8971 30.1339 64.912 30.2929 64.8573C30.273 64.6884 30.0594 64.2611 29.5179 63.9183C28.9813 63.5755 28.5044 63.5607 28.3405 63.6153Z" fill="white"></path> <path d="M48.5249 29.0367C48.0132 29.0367 47.5363 28.8777 47.1538 28.5695C46.0509 27.67 46.1105 25.8311 47.2929 24.3849C48.4753 22.9337 50.2588 22.5014 51.3617 23.4009C51.9479 23.878 52.2311 24.6483 52.1367 25.5181C52.0572 26.2238 51.7343 26.9593 51.2275 27.5855C50.7208 28.2117 50.065 28.6789 49.3894 28.8975C49.0963 28.992 48.8031 29.0367 48.5249 29.0367ZM48.5299 26.8798C48.7038 26.8798 49.1509 26.7158 49.5533 26.2188C49.9557 25.7218 50.0253 25.2497 49.9905 25.0857C49.8216 25.0857 49.3745 25.2497 48.9671 25.7467C48.5647 26.2387 48.4951 26.7108 48.5299 26.8798Z" fill="white"></path> <path d="M26.5516 83.25C25.7964 83.25 25.1208 82.9668 24.6885 82.4005C23.8291 81.2678 24.3259 79.4942 25.8113 78.3664C27.3017 77.2387 29.1399 77.2437 29.9994 78.3764C30.8588 79.5091 30.362 81.2827 28.8716 82.4104C28.1364 82.9668 27.3067 83.25 26.5516 83.25ZM26.4274 81.084C26.5913 81.1237 27.0682 81.0691 27.575 80.6865C28.0817 80.299 28.2655 79.8569 28.2705 79.688C28.1065 79.6482 27.6296 79.7029 27.1229 80.0854C26.6112 80.4679 26.4323 80.9101 26.4274 81.084ZM28.3102 79.6979H28.3152H28.3102Z" fill="white"></path> <path d="M127.517 49.8144C127.856 49.5763 127.985 49.1758 127.805 48.9197C127.626 48.6636 127.205 48.649 126.866 48.8871C126.527 49.1251 126.398 49.5257 126.577 49.7817C126.757 50.0378 127.178 50.0524 127.517 49.8144Z" fill="white"></path> <path d="M127 51.0602C126.478 51.0602 125.992 50.8317 125.684 50.3945C125.4 49.9921 125.331 49.4804 125.49 48.9886C125.614 48.5961 125.882 48.2434 126.235 47.995C127.075 47.4038 128.148 47.5379 128.679 48.293C129.211 49.0531 128.967 50.1064 128.128 50.6926C127.775 50.941 127.378 51.0602 127 51.0602ZM126.916 49.535C127.094 49.7884 127.388 49.8282 127.477 49.7636C127.497 49.7487 127.527 49.7139 127.547 49.6493C127.596 49.5003 127.557 49.3016 127.452 49.1525L126.916 49.535ZM127 48.8991C126.95 48.8991 126.911 48.9091 126.886 48.9289C126.796 48.9935 126.732 49.2817 126.911 49.535L127.447 49.1575C127.323 48.9687 127.129 48.8991 127 48.8991Z" fill="white"></path> <path d="M81.8651 14.1841C82.1194 14.002 82.1301 13.5812 81.889 13.2443C81.6479 12.9074 81.2463 12.7819 80.992 12.964C80.7377 13.1461 80.727 13.5669 80.9681 13.9038C81.2092 14.2407 81.6108 14.3662 81.8651 14.1841Z" fill="white"></path> <path d="M81.5927 15.3527C81.0363 15.3527 80.4699 15.0646 80.0923 14.533C79.4962 13.6984 79.6154 12.6253 80.3656 12.0887C81.1157 11.5522 82.1739 11.7857 82.7701 12.6154C83.3663 13.45 83.247 14.5231 82.4969 15.0596C82.2236 15.2583 81.9106 15.3527 81.5927 15.3527ZM81.2399 13.3109C80.9866 13.4947 80.9518 13.7828 81.0164 13.8772C81.081 13.9666 81.3691 14.0263 81.6225 13.8474L81.2399 13.3109ZM81.5976 13.1917C81.4883 13.1917 81.3641 13.2215 81.2399 13.3109L81.6225 13.8474C81.8758 13.6636 81.9106 13.3755 81.846 13.2811C81.8113 13.2314 81.7169 13.1917 81.5976 13.1917Z" fill="white"></path> <path d="M130.822 96.4233C131.043 96.2021 130.985 95.7853 130.692 95.4924C130.399 95.1994 129.982 95.1412 129.761 95.3624C129.54 95.5836 129.598 96.0004 129.891 96.2933C130.184 96.5863 130.601 96.6445 130.822 96.4233Z" fill="white"></path> <path d="M130.478 97.6435C130.006 97.6435 129.519 97.4448 129.131 97.0573C128.823 96.7493 128.625 96.3568 128.57 95.9494C128.5 95.4377 128.659 94.9459 129.007 94.5981C129.355 94.2504 129.847 94.0914 130.358 94.1659C130.766 94.2206 131.158 94.4243 131.466 94.7273C131.774 95.0353 131.973 95.4278 132.028 95.8352C132.097 96.3469 131.938 96.8387 131.591 97.1864C131.283 97.4895 130.885 97.6435 130.478 97.6435ZM130.478 95.4774C130.354 95.4774 130.195 95.5272 130.06 95.6613C129.931 95.7905 129.862 95.9743 129.882 96.1332C129.892 96.1978 129.911 96.2376 129.931 96.2525C129.946 96.2723 129.991 96.2922 130.055 96.3022C130.209 96.322 130.398 96.2525 130.527 96.1233C130.657 95.9941 130.726 95.8103 130.706 95.6513C130.696 95.5868 130.676 95.547 130.657 95.5271C130.622 95.4973 130.557 95.4774 130.478 95.4774Z" fill="white"></path> <path d="M120.681 59.3248C120.184 59.3248 119.707 59.1757 119.32 58.8876C118.739 58.4554 118.401 57.7549 118.391 56.965C118.386 56.2744 118.624 55.564 119.072 54.9629C119.519 54.3617 120.125 53.9245 120.786 53.7308C121.546 53.5072 122.311 53.6314 122.892 54.0587C124.035 54.9032 124.144 56.6272 123.14 57.9785C122.693 58.5796 122.087 59.0168 121.421 59.2105C121.173 59.29 120.925 59.3248 120.681 59.3248ZM121.536 55.7826C121.501 55.7826 121.451 55.7876 121.397 55.8074C121.188 55.8671 120.969 56.031 120.805 56.2545C120.641 56.4781 120.547 56.7265 120.552 56.9451C120.552 57.0693 120.587 57.1388 120.607 57.1537C120.627 57.1687 120.706 57.1786 120.82 57.1438C121.029 57.0842 121.248 56.9203 121.411 56.6967C121.734 56.2595 121.69 55.8521 121.61 55.7925C121.595 55.7875 121.57 55.7826 121.536 55.7826Z" fill="white"></path> <path d="M88.612 22.1905C87.991 22.1905 87.3302 21.9917 86.7291 21.5844C86.1131 21.1621 85.6461 20.5759 85.4275 19.9201C85.1741 19.1699 85.2635 18.3999 85.6709 17.7987C86.0783 17.1976 86.7639 16.83 87.5538 16.7902C88.2443 16.7555 88.9597 16.9641 89.5807 17.3864C90.1968 17.8087 90.6638 18.3949 90.8824 19.0507C91.1357 19.8008 91.0463 20.5709 90.6389 21.172C90.1819 21.8427 89.4317 22.1905 88.612 22.1905ZM87.7028 18.9463C87.6879 18.9463 87.678 18.9463 87.6631 18.9463C87.5389 18.9513 87.4693 18.9861 87.4594 19.0109C87.4445 19.0308 87.4345 19.1103 87.4743 19.2245C87.5438 19.4332 87.7177 19.6369 87.9463 19.7959C88.3983 20.1039 88.8057 20.0344 88.8554 19.9598C88.8703 19.94 88.8753 19.8605 88.8405 19.7462C88.7709 19.5376 88.5971 19.3289 88.3685 19.1749C88.1499 19.0308 87.9115 18.9463 87.7028 18.9463Z" fill="white"></path> <path d="M119.056 43.4466C119.011 43.4466 118.967 43.4466 118.922 43.4416C118.231 43.4068 117.536 43.1237 116.965 42.6467C116.393 42.1698 115.991 41.5339 115.832 40.8632C115.653 40.0932 115.817 39.3331 116.284 38.7766C117.193 37.6887 118.922 37.6787 120.214 38.7568C120.785 39.2387 121.187 39.8696 121.341 40.5403C121.52 41.3103 121.356 42.0704 120.889 42.6269C120.457 43.1535 119.791 43.4466 119.056 43.4466ZM118.117 40.118C118.028 40.118 117.963 40.1379 117.943 40.1627C117.928 40.1826 117.913 40.2571 117.938 40.3813C117.988 40.5949 118.137 40.8185 118.351 40.9973C118.564 41.1762 118.808 41.2805 119.026 41.2905C119.151 41.2954 119.22 41.2656 119.24 41.2457C119.255 41.2259 119.275 41.1513 119.245 41.0271C119.195 40.8135 119.046 40.59 118.833 40.4111C118.559 40.1876 118.286 40.118 118.117 40.118Z" fill="white"></path> <path d="M124.015 90.4665C123.19 90.4665 122.311 90.0641 121.655 89.304C120.552 88.0322 120.527 86.3083 121.6 85.3743C122.673 84.4403 124.377 84.7086 125.485 85.9804C126.588 87.2522 126.613 88.9761 125.54 89.9101C125.103 90.2827 124.571 90.4665 124.015 90.4665ZM123.011 87.0038C122.942 87.0634 122.922 87.4758 123.279 87.8881C123.637 88.3005 124.044 88.3402 124.119 88.2806C124.189 88.221 124.208 87.8086 123.851 87.3963C123.493 86.9839 123.086 86.9442 123.011 87.0038Z" fill="white"></path> <path d="M113.671 67.039C113.661 67.039 113.656 67.039 113.651 67.039C112.777 67.034 112.047 66.6614 111.639 66.0255C110.879 64.8282 111.515 63.0993 113.09 62.1008C113.77 61.6686 114.536 61.4251 115.251 61.435C116.125 61.44 116.856 61.8126 117.263 62.4485C117.67 63.0844 117.695 63.9091 117.328 64.699C117.029 65.3449 116.493 65.941 115.812 66.3733C115.137 66.8055 114.382 67.039 113.671 67.039ZM113.472 64.858C113.636 64.9127 114.108 64.8978 114.65 64.555C115.191 64.2122 115.405 63.7849 115.425 63.616C115.261 63.5614 114.784 63.5763 114.247 63.9191C113.711 64.2618 113.492 64.6891 113.472 64.858Z" fill="white"></path> <path d="M96.208 29.0367C95.284 29.0367 94.2656 28.5248 93.5005 27.5855C92.9888 26.9593 92.6659 26.2238 92.5913 25.5181C92.4969 24.6483 92.7801 23.878 93.3663 23.4009C94.4692 22.5014 96.2577 22.9337 97.4352 24.3849C98.6126 25.8361 98.6722 27.675 97.5743 28.5695C97.1818 28.8826 96.7098 29.0367 96.208 29.0367ZM94.7375 25.0857C94.7027 25.2547 94.7723 25.7268 95.1747 26.2188C95.5771 26.7158 96.0242 26.8798 96.1981 26.8798C96.2329 26.7108 96.1633 26.2387 95.7609 25.7467C95.3536 25.2497 94.9064 25.0857 94.7375 25.0857Z" fill="white"></path> <path d="M118.177 83.2507C118.103 83.2507 118.028 83.2457 117.949 83.2408C117.239 83.1861 116.493 82.8881 115.852 82.4012C115.212 81.9143 114.72 81.2784 114.476 80.6077C114.178 79.788 114.268 78.9733 114.725 78.3672C115.182 77.766 115.937 77.4531 116.811 77.5226C117.522 77.5773 118.267 77.8753 118.908 78.3622C119.549 78.8491 120.04 79.485 120.284 80.1557C120.582 80.9754 120.493 81.7901 120.036 82.3962C119.618 82.9477 118.952 83.2507 118.177 83.2507ZM116.459 79.6837C116.464 79.8526 116.642 80.2948 117.154 80.6823C117.666 81.0698 118.138 81.1244 118.302 81.0797C118.297 80.9108 118.118 80.4686 117.606 80.0811C117.099 79.6986 116.627 79.6439 116.459 79.6837Z" fill="white"></path> <path d="M180.238 23.294H177.605L176.949 19.6164C176.417 19.1691 175.712 18.7963 174.828 18.5031C173.943 18.2099 172.92 18.0608 171.752 18.0608C169.899 18.0608 168.478 18.4534 167.49 19.2386C166.501 20.0239 166.004 21.0477 166.004 22.31C166.004 23.4332 166.506 24.3675 167.515 25.113C168.523 25.8634 170.153 26.5194 172.403 27.086C175.116 27.7569 177.177 28.7509 178.583 30.0579C179.994 31.37 180.695 32.9901 180.695 34.9234C180.695 37.0008 179.85 38.6657 178.156 39.928C176.467 41.1903 174.251 41.8215 171.514 41.8215C169.532 41.8215 167.773 41.4985 166.233 40.8474C164.693 40.1964 163.441 39.3515 162.477 38.2979V33.502H165.095L165.766 37.1996C166.437 37.7562 167.241 38.2084 168.17 38.5613C169.099 38.9142 170.217 39.0931 171.514 39.0931C173.273 39.0931 174.659 38.7203 175.677 37.9798C176.695 37.2393 177.207 36.2305 177.207 34.9532C177.207 33.7754 176.765 32.7864 175.881 31.9912C174.996 31.196 173.436 30.5251 171.196 29.9834C168.473 29.3373 166.342 28.3782 164.812 27.1158C163.277 25.8535 162.512 24.2681 162.512 22.3547C162.512 20.337 163.366 18.6621 165.075 17.3203C166.784 15.9834 169.005 15.3125 171.742 15.3125C173.546 15.3125 175.19 15.6206 176.666 16.2419C178.146 16.8631 179.334 17.6135 180.228 18.4981V23.294H180.238Z" fill="white"></path> <path d="M204.447 15.6852V21.3806H201.476L201.213 18.4236H195.5V38.7154L198.381 39.2074V41.4389H189.131V39.2074L192.012 38.7154V18.4236H186.284L186.036 21.3806H183.045V15.6852H204.447Z" fill="white"></path> <path d="M202.893 39.2177L204.8 38.9543L213.802 15.6906H216.793L225.636 38.9543L227.529 39.2177V41.4492H220.137V39.2177L222.084 38.8798L220.385 34.1386H210.076L208.328 38.8798L210.275 39.2177V41.4492H202.903V39.2177H202.893ZM211.149 31.2213H219.322L215.323 20.1635H215.218L211.149 31.2213Z" fill="white"></path> <path d="M241.001 15.7045C243.808 15.7045 245.959 16.3257 247.454 17.5731C248.95 18.8156 249.7 20.5848 249.7 22.8709C249.7 24.1233 249.352 25.2316 248.657 26.1958C247.961 27.1649 246.963 27.9253 245.666 28.4769C247.067 28.9391 248.08 29.6846 248.701 30.7233C249.322 31.762 249.63 33.0392 249.63 34.5649V36.6324C249.63 37.4226 249.73 38.009 249.933 38.3867C250.132 38.7644 250.465 38.9881 250.922 39.0576L251.772 39.162V41.4432H249.899C248.542 41.4432 247.579 40.971 247.007 40.0268C246.436 39.0825 246.148 37.9395 246.148 36.5926V34.5948C246.148 33.1933 245.74 32.0651 244.926 31.2153C244.111 30.3654 243.023 29.943 241.652 29.943H236.063V38.7197L238.944 39.2117V41.4432H229.694V39.2117L232.575 38.7197V18.4279L229.694 17.9359V15.7045H232.575H241.001ZM236.068 27.2046H240.648C242.596 27.2046 244.007 26.8319 244.891 26.0914C245.775 25.3509 246.217 24.2625 246.217 22.8361C246.217 21.4794 245.795 20.4059 244.946 19.6157C244.096 18.8255 242.779 18.4279 241.001 18.4279H236.068V27.2046Z" fill="white"></path> <path d="M273.597 15.6852V21.3806H270.626L270.363 18.4236H264.649V38.7154L267.531 39.2074V41.4389H258.28V39.2074L261.162 38.7154V18.4236H255.434L255.185 21.3806H252.195V15.6852H273.597Z" fill="white"></path> <path d="M272.042 39.2177L273.95 38.9543L282.952 15.6906H285.943L294.786 38.9543L296.679 39.2177V41.4492H289.286V39.2177L291.234 38.8798L289.535 34.1386H279.226L277.477 38.8798L279.425 39.2177V41.4492H272.042V39.2177ZM280.299 31.2213H288.472L284.472 20.1635H284.368L280.299 31.2213Z" fill="white"></path> <path d="M161.578 57.0641V54.8177H170.828V57.0641L167.947 57.5561V77.8479L170.828 78.3399V80.5714H161.578V78.3399L164.459 77.8479V57.5561L161.578 57.0641Z" fill="white"></path> <path d="M198.526 54.8177V57.0641L195.644 57.5561V80.5714H192.162L179.781 60.6871L179.677 60.7219V77.8479L182.558 78.3399V80.5714H173.308V78.3399L176.189 77.8479V57.5561L173.308 57.0641V54.8177H176.189H179.672L192.052 74.6871L192.157 74.6523V57.5611L189.275 57.0691V54.8227H195.644H198.526V54.8177Z" fill="white"></path> <path d="M219.535 62.4201H216.902L216.246 58.7424C215.715 58.2952 215.009 57.9224 214.125 57.6292C213.24 57.336 212.217 57.1869 211.05 57.1869C209.197 57.1869 207.776 57.5795 206.787 58.3648C205.798 59.15 205.302 60.1738 205.302 61.4361C205.302 62.5593 205.803 63.4936 206.812 64.2391C207.82 64.9895 209.45 65.6455 211.7 66.2121C214.413 66.883 216.475 67.877 217.881 69.184C219.292 70.4961 219.992 72.1163 219.992 74.0495C219.992 76.1269 219.147 77.7918 217.453 79.0541C215.764 80.3165 213.548 80.9476 210.811 80.9476C208.829 80.9476 207.07 80.6246 205.53 79.9735C203.99 79.3225 202.738 78.4776 201.774 77.424V72.6281H204.392L205.063 76.3257C205.734 76.8823 206.539 77.3346 207.468 77.6874C208.397 78.0403 209.514 78.2192 210.811 78.2192C212.57 78.2192 213.956 77.8464 214.974 77.1059C215.993 76.3654 216.504 75.3566 216.504 74.0793C216.504 72.9015 216.062 71.9125 215.178 71.1173C214.294 70.3221 212.734 69.6512 210.493 69.1095C207.771 68.4634 205.639 67.5043 204.109 66.2419C202.574 64.9796 201.809 63.3942 201.809 61.4808C201.809 59.4631 202.664 57.7882 204.373 56.4464C206.082 55.1095 208.302 54.4386 211.04 54.4386C212.843 54.4386 214.487 54.7467 215.963 55.368C217.443 55.9892 218.631 56.7396 219.525 57.6242V62.4201H219.535Z" fill="white"></path> <path d="M243.743 54.8177V60.5131H240.772L240.509 57.5561H234.796V77.8479L237.677 78.3399V80.5714H228.427V78.3399L231.308 77.8479V57.5561H225.58L225.332 60.5131H222.341V54.8177H243.743Z" fill="white"></path> <path d="M245.636 57.0641V54.8177H254.887V57.0641L252.005 57.5561V77.8479L254.887 78.3399V80.5714H245.636V78.3399L248.518 77.8479V57.5561L245.636 57.0641Z" fill="white"></path> <path d="M278.162 54.8177V60.5131H275.191L274.928 57.5561H269.215V77.8479L272.096 78.3399V80.5714H262.846V78.3399L265.727 77.8479V57.5561H259.999L259.75 60.5131H256.76V54.8177H278.162Z" fill="white"></path> <path d="M289.127 54.8174V57.0638L286.246 57.5558V72.2764C286.246 74.2246 286.802 75.7006 287.91 76.7095C289.018 77.7183 290.478 78.2203 292.297 78.2203C294.204 78.2203 295.744 77.7183 296.912 76.7144C298.079 75.7105 298.661 74.2345 298.661 72.2714V57.5508L295.779 57.0588V54.8124H302.148H305.03V57.0588L302.148 57.5508V72.2714C302.148 75.0694 301.239 77.2114 299.416 78.7024C297.593 80.1933 295.223 80.9388 292.297 80.9388C289.455 80.9388 287.155 80.1933 285.401 78.7024C283.642 77.2114 282.768 75.0645 282.768 72.2714V57.5508L279.887 57.0588V54.8124H282.768H289.127V54.8174Z" fill="white"></path> <path d="M328.12 54.8177V60.5131H325.149L324.886 57.5561H319.172V77.8479L322.054 78.3399V80.5714H312.803V78.3399L315.685 77.8479V57.5561H309.957L309.708 60.5131H306.718V54.8177H328.12Z" fill="white"></path> <path d="M330.033 80.5756V78.3442L332.915 77.8521V57.5604L330.033 57.0684V54.822H349.806V61.0144H346.815L346.532 57.5653H336.397V65.8997H346.249V68.6431H336.397V77.8621H346.746L347.029 74.413H350V80.5856H330.033V80.5756Z" fill="white"></path> <path d="M163.217 116.753L166.052 99.6796H167.544L166.443 106.391H166.577C166.805 106.007 167.108 105.612 167.486 105.207C167.869 104.801 168.341 104.462 168.903 104.19C169.464 103.912 170.137 103.773 170.92 103.773C171.971 103.773 172.846 104.051 173.546 104.606C174.252 105.157 174.744 105.929 175.022 106.924C175.3 107.913 175.33 109.067 175.113 110.384C174.891 111.706 174.477 112.865 173.871 113.86C173.265 114.855 172.521 115.63 171.637 116.186C170.753 116.742 169.789 117.02 168.744 117.02C167.966 117.02 167.338 116.881 166.86 116.603C166.388 116.325 166.027 115.983 165.777 115.577C165.532 115.166 165.354 114.766 165.243 114.377H165.06L164.659 116.753H163.217ZM165.752 110.359C165.585 111.392 165.585 112.309 165.752 113.11C165.924 113.904 166.26 114.53 166.76 114.985C167.266 115.436 167.933 115.661 168.761 115.661C169.611 115.661 170.37 115.427 171.037 114.96C171.709 114.488 172.265 113.852 172.704 113.051C173.149 112.251 173.454 111.354 173.621 110.359C173.782 109.375 173.78 108.489 173.613 107.699C173.446 106.91 173.11 106.285 172.604 105.824C172.098 105.357 171.418 105.123 170.562 105.123C169.728 105.123 168.978 105.348 168.311 105.799C167.649 106.243 167.099 106.86 166.66 107.649C166.221 108.433 165.918 109.336 165.752 110.359Z" fill="white"></path> <path d="M177.097 121.555C176.803 121.555 176.531 121.527 176.281 121.471C176.036 121.416 175.844 121.355 175.705 121.288L176.331 119.979C176.797 120.14 177.225 120.19 177.614 120.129C178.009 120.073 178.384 119.885 178.74 119.562C179.095 119.24 179.446 118.759 179.79 118.12L180.49 116.819L177.956 103.948H179.498L181.499 114.819H181.608L187.218 103.948H188.894L181.016 118.762C180.677 119.401 180.301 119.926 179.89 120.337C179.485 120.749 179.045 121.054 178.573 121.254C178.106 121.455 177.614 121.555 177.097 121.555Z" fill="white"></path> <path d="M198.141 101.08L198.374 99.6796H210.754L210.521 101.08H205.11L202.509 116.753H200.95L203.551 101.08H198.141Z" fill="white"></path> <path d="M214.408 117.02C213.213 117.02 212.226 116.742 211.448 116.186C210.67 115.625 210.125 114.849 209.814 113.86C209.503 112.865 209.456 111.72 209.672 110.425C209.889 109.136 210.317 107.991 210.956 106.991C211.595 105.985 212.385 105.198 213.324 104.632C214.263 104.059 215.283 103.773 216.383 103.773C217.078 103.773 217.728 103.901 218.334 104.156C218.94 104.406 219.454 104.793 219.876 105.315C220.304 105.832 220.602 106.485 220.768 107.274C220.935 108.058 220.929 108.986 220.752 110.059L220.635 110.792H210.631L210.839 109.483H219.334C219.473 108.661 219.434 107.922 219.218 107.266C219.001 106.61 218.631 106.09 218.109 105.707C217.592 105.318 216.95 105.123 216.183 105.123C215.4 105.123 214.658 105.343 213.957 105.782C213.263 106.221 212.674 106.793 212.19 107.499C211.712 108.2 211.404 108.947 211.265 109.742L211.098 110.725C210.92 111.809 210.942 112.718 211.165 113.452C211.387 114.18 211.79 114.73 212.373 115.102C212.957 115.475 213.704 115.661 214.616 115.661C215.227 115.661 215.78 115.566 216.275 115.377C216.77 115.188 217.2 114.935 217.567 114.619C217.934 114.296 218.228 113.943 218.451 113.56L219.776 114.018C219.493 114.558 219.093 115.055 218.576 115.511C218.064 115.966 217.456 116.333 216.75 116.611C216.05 116.883 215.269 117.02 214.408 117.02Z" fill="white"></path> <path d="M227.223 99.6796L224.388 116.753H222.904L225.739 99.6796H227.223Z" fill="white"></path> <path d="M236.56 108.733L236.326 110.134H229.224L229.457 108.733H236.56Z" fill="white"></path> <path d="M239.261 116.753L242.095 99.6796H247.606C248.817 99.6796 249.792 99.8964 250.532 100.33C251.276 100.763 251.79 101.366 252.074 102.139C252.363 102.906 252.427 103.79 252.266 104.79C252.099 105.779 251.743 106.655 251.199 107.416C250.659 108.177 249.948 108.775 249.064 109.208C248.181 109.636 247.139 109.85 245.938 109.85H241.253L241.495 108.425H246.138C247.033 108.425 247.8 108.277 248.439 107.983C249.078 107.688 249.59 107.269 249.973 106.724C250.357 106.179 250.609 105.535 250.732 104.79C250.854 104.04 250.812 103.387 250.607 102.831C250.407 102.275 250.034 101.844 249.49 101.539C248.951 101.233 248.231 101.08 247.33 101.08H243.421L240.82 116.753H239.261ZM248.064 109.05L250.99 116.753H249.198L246.322 109.05H248.064Z" fill="white"></path> <path d="M257.305 117.045C256.533 117.045 255.852 116.895 255.263 116.594C254.674 116.289 254.234 115.85 253.945 115.277C253.662 114.699 253.584 113.999 253.712 113.176C253.823 112.543 254.034 112.009 254.346 111.576C254.662 111.142 255.063 110.787 255.546 110.509C256.03 110.225 256.585 110.003 257.213 109.842C257.841 109.681 258.525 109.558 259.264 109.475C259.987 109.386 260.604 109.308 261.115 109.242C261.626 109.175 262.024 109.069 262.307 108.925C262.59 108.78 262.76 108.547 262.815 108.225L262.866 107.924C263.01 107.052 262.877 106.366 262.465 105.865C262.054 105.36 261.365 105.107 260.398 105.107C259.475 105.107 258.675 105.312 257.997 105.724C257.325 106.129 256.824 106.604 256.496 107.149L255.179 106.641C255.579 105.94 256.071 105.382 256.655 104.965C257.238 104.543 257.864 104.24 258.531 104.056C259.197 103.867 259.856 103.773 260.506 103.773C260.995 103.773 261.493 103.837 261.999 103.965C262.504 104.092 262.957 104.315 263.357 104.632C263.763 104.943 264.06 105.379 264.249 105.94C264.444 106.496 264.472 107.202 264.333 108.058L262.882 116.753H261.398L261.74 114.727H261.648C261.415 115.105 261.093 115.472 260.681 115.827C260.276 116.183 259.789 116.475 259.222 116.703C258.656 116.931 258.016 117.045 257.305 117.045ZM257.68 115.686C258.469 115.686 259.184 115.511 259.823 115.161C260.467 114.81 260.995 114.346 261.407 113.768C261.823 113.185 262.09 112.543 262.207 111.843L262.515 109.992C262.393 110.097 262.193 110.192 261.915 110.275C261.643 110.359 261.334 110.434 260.99 110.5C260.651 110.562 260.309 110.614 259.964 110.659C259.625 110.703 259.325 110.742 259.064 110.776C258.325 110.864 257.68 111.003 257.13 111.192C256.585 111.381 256.149 111.643 255.821 111.976C255.493 112.304 255.288 112.726 255.204 113.243C255.076 114.021 255.246 114.624 255.713 115.052C256.185 115.475 256.841 115.686 257.68 115.686Z" fill="white"></path> <path d="M269.639 108.75L268.313 116.753H266.83L268.964 103.948H270.406L270.072 105.957H270.206C270.606 105.301 271.159 104.776 271.865 104.381C272.576 103.981 273.401 103.781 274.341 103.781C275.197 103.781 275.919 103.962 276.508 104.323C277.103 104.679 277.525 105.204 277.775 105.899C278.031 106.593 278.075 107.446 277.909 108.458L276.517 116.753H275.033L276.4 108.55C276.572 107.505 276.419 106.677 275.941 106.065C275.469 105.448 274.738 105.14 273.749 105.14C273.076 105.14 272.451 105.285 271.873 105.574C271.301 105.863 270.817 106.279 270.423 106.824C270.028 107.363 269.767 108.005 269.639 108.75Z" fill="white"></path> </svg> 